<svg height="320" width="240" xmlns="http://www.w3.org/2000/svg"><g fill="none" stroke="#000"><path d="m105.5 60.45q1.35 0 3.7-1.35 2-1.1 4.3-.65 2.7 2.55 2 8-2.8 1.05-8.6 6.9-4.85 4.85-10.4 5.1.7 1.4 2.7 1.85l4.3.15q-.05 1.9-1.35 3.15l-2.65 1.85q-.2.85-1.55.95l-1.85.05h-.6q-1 .7-.45 1.15l1.05.5.75.3q3.1 1.25 1.65 4.05 1.45-2.05 4.1-3.4.45-.75 2.3-1.45l3.2-1.5h3.65l.05.05h5.95l.55-.1h7.35q.55-.05.65.35l.1.3 3.6.35 1.25-.05.2-.05q1.65 0 1.95.5h.1q-.2 5-1.5 10l-1.4 1.1-1.2 1.8q-.3.7-.3 1.7v1.85l.15 1.4-3 6.5q-.8.15-1.7 1.15-.9.95-1.05 1.6l-.3 1.75-.55 1.6-.75.85-.8.8-1.1.85-1.65.55-1.55.3-1.25.55-.95.7-.3.25q-1.7.65-2.8.7.4 1.45 4.5 1l3.5.1h.1l.8.25.75.65.05 1.2v.9q-.15.35-.75.45h-4.85q-1.55.9-2.3 2.25l-.6.55-.35.5-2.9.7-.35-.15-8.7.05-.15.15q0 .3.65.85l.65.55h-.05q.25.3 1.7.8 1.15.4 1.3 1.2l-13 1q-1.9-1.25-3.05-2.25l-.6-.6q-1.75-1.8-2.35-4.15-1.45 1.5-2.1 2.9-.75 1.45-.85 3.25l-.05.85q-.35.15-.6 1.1l-.3 1.5q-.25 1.9-2.1 1.4-.25-1.25.25-2.3l.75-1.7-.3-.85q-.45-.6-1.4 0l-.25.15q-1.7 1.15-1.05 2.7-.9-1.3-.3-2.85.4-1.05 1.5-2.25l.25-.25q1.35-1.4 4.55-3.65-2.35-3.1-5.65.95l-1.7 2.7-1.5 2.5-1.15 1.85q-1.45-.55-1.85-1.85-.15-.5-.15-1.15-1.5-.35-2.5 1l-.1.15q-.95 1.25-2.4.85v-1q-.35-.05-.55.15-.5.4-.5 1.8-.05 1.9-1.95 1.05v-5q.85 1 2.4-.35l.85-.9q2.1-2.5 3.75-.75.9.15 1.65-.35.85-.65 1.35-.65v-7q1.5-1.2 2.4-1.5l.25-.1.4-.05q1.15-.1 2.95.65-.3-1-.25-2.45l.25-2.8q.6-3.4 0-5.75-1.65.5-2.95 1.95l-.65.75-.2.25-2.4 4.35-.7 1.25q-1.5 2.35-3.4 3.45-1.7 1-3.7 1-2.95.45-5-1 .45-1.35 2.3-.5 1.95.95 2.7-.5.15-1.25-.9-2.45l-.85-.8q-1.8-1.4-1.25-3.75 1.85-.5 3 .55 1.5 1.35 2 1.45l2.1-2.4q1.4-1.25 3.9-.6-2.8-1.95-2.8-6.25 0-1.4.3-2.55l.35-1.1q.65-1.8 2.15-3.1l-10.45-3.55q-4.55-2.4-5.4-7.1l-.15-1.35 3.6-.4 1.3-.3q1.45-.75 2.1-4.3 1.05 1.5 2 4.6l.5 1.75.6 2.55q2.05 5.15 7.9 4.1l.4-.8v-.8q-.25-1.1-1.8-2.3-1.75-1.35-2.35-2.75-.35-.85-.3-1.75l.05-.6q2.6-.35 4.35.6l.05.05.6.35-1.25-4.75q-.85-2.8-.75-5.25.8-.85 2.05-.95l1.3.05 3.65.9q-.8-2.25-.45-5.65.35-3.25-.55-5.35l3.25.25 1.2.45 1.55.3q1.1-1.35-.65-3.65l-.9-1.4q-1-2-.45-3.95l.45-.25q2.3-1.2 6.25.05l.45.15q2.6.95 4.45.85 1.45-.1 2.4-.8.1-1.25 3.5-1.25 3.45 0 3.5 1.25m-34 6-5.85 9.6-.25.3q-4.05 5-9.9 6.1 1.3 2.7-.95 6.6l-.3.45-.8 1.3q-2.25 3.95-1.95 6.65-1.35-2.25-1.8-6.65l-.15-1.75q-.1-2.1-.05-4.6 1.85.5 3-.5 1.5-1.4 2-1.5 1.35-2.65 4-4v-8q2.25.45 3.15-.85.5-.75.85-3.15 1.9-3.1 5-5 1.45.15 2.2 2.3.8 2.35 1.8 2.7m-8 35q3.3-.2 3 3-3.2.3-3-3m-14.95 4.2-2.05 2.8q-1.15-.45.2-2.6l.15-.2.65-1.1 1-2.1q1.3.7.7 2.1l-.5.85zm4.95 14.8v-.45q.1-1.8 2.25-2.8 2.6-1.2 2.75-2.75 1.55 1.35-.65 3.6-1.35 1.35-2.75 1.95zm24 24q2.35.05 2.1 3.45-.3 3.35-3.1 2.55-.1-2.35.05-3.45.2-1.75.95-2.55m-3-5q0 12.1-3 14-2.45-1.2-.65-6.7 1.45-4.3 3.65-7.3" transform="translate(3.087899 -23.998195)"/><path d="m83.537899 142.10181q2-1 2.05-1.55-.6-.5-.8-1.8v-2.15l.1-2.45.4-1.1q.35-.7 1-1.3 1.85-1.35 2.45-2.3l.1-.1.75-2.35q.75-2.65.85-5.25l-.15-.25q-.55-1.15-.6-1.7l-.3-.4-1.1-2.6q-.9-2.35-.9-3 0-2.75 3.25-1.75 2.2.7 2.9 1.4h.05q.9.2 1-1l13.050001-1q.55-.95 4 .3 1.69999.1 2.44999.65l2.9-.05 2.2-.3.25-.35 1.25-1.65q.9-1.3 2.5-1.2 1.1.05 1.45.65 5.9 3.4 10 7.7l.9.15q1.05.15 1.55.7l1.35 1.9 1.3 2.1q.95 1.25 1.25 4l.05.4.25.6q0 1.45.4 2.3l.35 1.8-.1 1.9-.05.15q0 .85.6 2.8.4 1.4 1.1 2.75l.95 1.45.05 1.25h-27l-4.6-.3q-.39999-.85-1.99999-1.35l-1.3-.25-.1-.1-.05.1q-1.1-.05-1.9.4-.5.3-.8 1.8l-.15.9q-1.8 1.6-4.1 2.8-1.75-.15-3.700001-1.25-2.55-1.5-3.3-1.75-2.25.55-1.8 2.7l.8 4.3q-2.35-.15-4-2.45-2.15-3.05-3-3.55-.75-.15-2.3 1.9-1.2 1.55-1.7.1v-2q-1.7-.55-.05-1.35"/><path d="m145.3745 141.53125c-6.80208.0312-13.60417.0625-20.40625.0937-1.01928 1.54796-.30221 5.81049 2.18316 3.02599 1.43848.35872 2.64529 2.57783 1.45784 4.12977.42201 1.98703.92091 3.98051 2.88156 5.49906 1.11494 2.87698-3.04627 2.11009-2.46011 4.59518-.88424.61035 1.11011 4.32801-1.6875 3.93755-2.71236.46494-4.92412 2.65252-7.0625 1.3437-2.45288.51736 2.77109 2.47067.8125 4.65625.2438 3.89001-7.6314 2.94631-3.53699 6.37315 1.94674.51371 4.02279 2.44987 1.09753 3.18564-.97553.27393 2.00259 1.51822-.23283 2.68243-1.62448 1.13982-.13493 3.92981.76604 2.22753 1.51175 2.71732 3.17079-.70404 5.15625 1.84375.93467 1.75426 2.66207-1.34783 3.08501 1.41855-3.136 1.28066-5.09041 5.81605-3.52939 9.59311.5331 1.57244.73938 3.40122 1.56928 3.86334 1.65388.10626 4.45961-1.26682 2.59076.41379-1.41401 1.17677-.45121 2.30178.7092 1.89763-.93382 2.05907 1.05439 4.15462 1.76254 5.78233 1.69034.36882-.24433 2.33678-.24433 2.33678 1.73868 1.51854 3.9804.20709 5.66636-.87293 1.74082-.55928 1.68581-3.52394 3.72028-2.96375 2.02611.36311 3.31684-1.17771 4.57783-2.50859 1.50625-.90782 2.08837-2.77454 2.70809-.39141 1.62106.44398 3.72841.64355 5.22187-.29687 1.49624-1.55354 3.4187-3.08394 3.44292-5.42688 1.06575-1.71411 1.79412-3.64797 1.81302-5.70998.0134-2.71177-2.24388-4.78003-2.34534-7.60377-2.40104-1.00019-1.73756-3.01852-1.47622-4.99884 2.00382-.36139 3.27354-2.93371 5.59611-3.08904 3.44512-1.81576 6.50061 1.96929 9.71997 2.54917 1.5031-.007 1.24291-2.16082.75515-3.08434-.96266-1.60341-2.68543-2.49805-4.08597-3.66624-1.15393-.83221-2.17789-1.8665-1.77272-3.41051.25746-1.413 2.08256-2.21912 1.32036-3.86888-.12395-2.03909-2.65538-2.59436-3.27025-4.39684-1.56425-2.45631-3.59567-4.59455-5.11573-7.03448-1.9-1.69634-4.39199-1.91265-6.78361-1.96902-3.16932.22958-1.42485-4.95194-3.67161-6.66316-.46513-1.11265-.86129-2.27993-.93228-3.49287zm-56.28125 47.59375-.0312.0312z"/><path d="m84.587899 263.45181q2.3.8 3.55 3.45.8 1.8 1.45 5.55l-.65.2-1.5 1.1-.05.05h-.05q-.45 0-1.45.45-1.05.4-1.2.65l-.4.45q-3.05 1.15-4.35 1.9l-1 .65q-1.2.2-2.15.95l-1.85 1.8q-1.15.9-1.25 1.8l-.6.9-.35.5-.2-.1-1.05.15-.5-.1-.05-.05q-.2-.2-.25-.7l-.35-.65-1.25-1.25q-.7-.7-2.05-.7-1.2 0-2.15.65l-.55.5-.8.3q-.7 0-.8-.55v-.7q0-1.05.2-1.25 0-.55.7-.55h2.8l2.7-.95 2.05-1.45.6-.8.55-.75q.85-.9 2.1-1.05l.5-.55q6.25-6.75 9.65-9.85"/><path d="m93.587899 249.45181q10.850001-.25 19.000001 2-.45 2.7 1.49999 7.2 1.65 3.85.5 5.8-.55 1.75-4.19999 2.25-4 .55-4.8 1.75.85 9.85-6.300001 8.25-2.2-.55-5.7-2.3-3.15-1.65-3.85-1.9l-.15-.05q-.65-3.75-1.45-5.55-1.25-2.65-3.55-3.45 1.55-.6 2.1-3.45l.9-4.55q1.65-.4 3.65.4 1.45.55 2.35-.4 1.4-.5.5-2.3-1.15-2.3-.5-3.7"/><path d="m138.59375 206.5c-.99357 3.4459-5.64927 4.175-7.6608 5.02674-.0245 2.37917-1.40333 3.44186-1.96745 5.26872-1.91092.58104-2.56578 1.73638-4.6529 2.20444 1.6092.10438-.2172 2.52962 1.9945 1.47686 1.3966-1.29057 1.41673-.90754 1.60637.35461 2.06862.59235-.82574 2.56709 1.68339 2.99239.94776 2.22304-1.02117 4.37459-2.42983 3.68668.86089 2.03713.64966 3.78996-1.72758 4.45183-2.26109 1.13451-.58662 4.90908-1.12965 7.29359-.31685 2.3435-2.84607 2.77144-3.51658 2.63743 1.1233-.80948-.99042.20653-.77645 1.1124-2.90237.48905-2.39825 3.82803-2.72717 5.98079-1.396 2.639-6.49035 1.64053-4.54206 5.71087.62407 2.99497 2.84138 5.84834 2.08842 8.98881 1.54983 2.46542 5.50194 1.63279 7.82306 3.35114 2.15641 1.80259 4.71787 1.54673 7.27955 1.95372 2.53332 1.09886 7.07419.73109 5.0996-3.13829-1.13721-2.55461-1.04891-2.50051 1.39499-2.56594.91386-.22696 7.8453.90486 8.5276-.49874.6474-3.43229.56147-12.64562 1.781-16.13831.64674-1.85225 7.23412-5.44455 10.45829-5.93883 1.8863-.92496 6.54304.0851 6.9621-1.29041-3.68765-7.40447-11.27475-11.52513-16.55561-17.62127-3.09981-3.43685-6.21525-7.36533-7.01282-12.02617 0-1.091 0-2.18201 0-3.27301-.66663-.00003-1.33349.00007-1.99997-.00005zm-18.25 35.25.0197-.0647zm.0312-.0625c.10701.26767.20333-.25613 0 0zm4.03125-23.75c-.11978.34519.34828.17561 0 0zm-.5312.5625c-.82052.50946 2.00257-.5149 0 0zm-.53125 21.625v.0937zm-1.4375 1.75c.14468.15191-.33637.2477 0 0z"/><path d="m159.58789 176.45181q8 4.15 10.75 6.75 5 4.75 5.25 12.25.5 2.3-2.1 2.9-2.85.65-2.9 2.1.15 1.95 2.2 2.85l3.8 1.15q1.5-.45 3-3 1.45-2.55 3-3 9-1 13.9 3.8 4.25 4.2 4.25 11.4-.05 6.85-3.85 12.55-2.4 3.6-5.55 5.5-2.2 1.3-4.75 1.75-1 .35.3 2 1.65 2.1.7 4-.65.5-2.4 1.1-1.4.65-1.6 1.9l-9.35-.1q-7.15-.05-9.65-1.9-1.2-3.4-4.8-7.15l-1.6-1.6-5.6-5q-10-8.9-12-16.25v-4h.1q1.75 0 2.35-.85l.9-1.25q2.25-1.45 2.6-2.25l.05.05.2.95q.25.6 1.1.8h3.35q1.3-.5 2-1.4l1.4-1.6q.85-.65 1-1.75l.25-1.45 1-1.7.5-1.5.2-1.7.15-1.6q0-.95-.95-1.9-.95-.9-.85-2.3.1-2-1.2-3-1.35-1-1.35-1.3l.25-1.2.25-2.3q2.75-.3 3.65-2.3z"/><path d="m143.93789 264.80181.3-.2.75-.2.85-.05 1.95.4c1.86667.36667 2.46667 1.6 1.8 3.7-2.1.3-3.65.15-4.65-.45-.6-.36667-1.2-1.1-1.8-2.2l-.3-.55.45-.35zm3.00885-18.70506c5.31921-4.97655 11.76662-6.44995 17.64115-5.64494 1.66667 1.23333 4.88333 1.86667 9.65 1.9l9.35.1c3.2 2.1 7.53333 3.1 13 3-.36667 2.36667-1.21667 4.51667-2.55 6.45-.53023.12981-1.06624.23562-1.6.35-.73333.5-1.21667 1-1.45 1.5l-1.5 1.35c-.50716.5177-.39255.87658-.35 1.6l-1.95 1.25-3.05.05-2.1.5c-.2.1-.5.33333-.9.7l-2.4 1.4-.7 1c-2.79865.70271-5.72913.42661-8.7.45l-1.1-.5c-2.20433.005-4.62679.0537-6.6.05-.45183.0238-.7703.26678-1.15.45-1.14414.0272-2.27629.0393-3.4.25-4.23333-.76667-8.73965-1.17785-11.50631-2.97785-.14817-2.68605.24587-10.90651 1.43225-13.22721"/><path d="m114.04207 167.05497c0-.24007-.40892-.51428-.76692-.51428-.36097 0-.36993-.0157-.36993-.64826 0-.43412-.0859-.78735-.26026-1.06936l-.26026-.42112.35499-.0781c.6306-.13861.67077-.17009.67218-.52666.00068-.19323.0366-.56449.0797-.82501.10962-.66316-.13575-.60655-.40289.093-.27193.71203-.4652.87195-1.07224.88717l-.48424.0122-.89244-1.58464c-.76029-1.34998-.89244-1.67407-.89244-2.18853 0-.56439-.11535-.77886-1.76385-3.27958l-1.76386-2.67572.38331-.70035c.38024-.69473.74439-2.15573.74439-2.98654 0-.51328.99746-2.19046 1.84867-3.10843.44854-.48372.55156-.68392.5525-1.07369.00067-.31985.22944-.95143.68794-1.90016.37773-.78158.71132-1.42106.74131-1.42106.0301 0 .24622.0785.4805.17434.90387.36996.95667.36818 1.09794-.037.12496-.35849.1107-.383-.302-.5192-.50213-.16572-.52055-.23081-.18581-.65636.1745-.22184.42379-.17425.95884-.28781.75493-.1602.80816-.34669 1.42965.0521l.62435.40064.42255-.25761c.23241-.14169.36571-.25869.29624-.26002-.0695-.00095-.20799-.0541-.30779-.11723-.14715-.0931.48971.14736.80813-.15007 1.7983.33746 5.95379.30449 8.09864.18689.12998.12173.2373.1807.31959.4553.158.52738.17883.467-.47065 1.36442-.17766.24548-.18483.36257-.0513.83921.1543.55109.79552 1.465 1.02788 1.465.0669 0 .5265-.28421 1.02114-.63158s.93841-.63159.98615-.63159c.0477 0 .46414.53232.92533 1.18292l.83852 1.18291-.37671 1.11448c-.2072.61297-.37671 1.20799-.37671 1.32228s.2305.39303.51222.61943c.49396.39695.50523.42234.3158.71144-.10804.16489-.19644.50957-.19644.76595 0 .41991.10816.57073 1.09029 1.52024.59966.57975 1.13967 1.0541 1.20001 1.0541.0603 0 .10971.51448.10971 1.14329v1.14329l-.47368.2031c-.26053.11171-.58738.19488-.72633.18483-.13895-.0101-.4415.0804-.67234.20099-.39742.2076-.41674.24945-.36362.78767.0308.31264.0969.69025.1467.83915.0778.2323.0218.29271-.39428.42579-.70473.22537-.74078.30696-.35764.80929l.34588.45347-.15449 1.2309c-.085.677-.17923 1.27137-.20945 1.32082-.0302.0494-.19876.0352-.37448-.0316-.24513-.0932-.46799-.0576-.9574.15293-.46875.20165-.69236.24005-.84332.14483-.16004-.10096-.35339-.0203-.87487.36493-.58339.43098-.78268.50403-1.55081.56843-.86415.0725-.88677.0835-1.15567.56187-.25611.45568-.30402.48306-.72399.41375-.69508-.11472-.79745-.16813-.71817-.37473.0505-.13139-.0648-.25774-.36614-.40142-.42321-.20181-.45373-.19932-.81325.0665-.72047.53266-1.13502.26375-.67522-.43801l.21383-.32634-.49902.25459c-.30924.15776-.60979.45164-.79024.77271-.32086.57089-.60143.77112-1.08053.77112-.37168 0-.52809-.20084-.47518-.61018.0209-.16191-.0589-.40162-.17761-.53269-.12049-.13314-.18685-.34847-.15039-.48792.0382-.14618-.026-.33232-.15525-.44918-.20735-.18764-.22558-.14502-.3054.71369-.0952 1.0248-.38909 1.63374-1.31454 2.72417-.53562.6311-.78478.80441-.78478.54587z"/><path d="m101.97335 211.53425c-1.90179.30902-2.873745 1.0549-2.691472 3.03232-.762457 2.20858-1.141771 5.06199-3.480837 6.19549-1.790404.91792-3.361307 2.30116-5.041361 3.14246-2.877316-.2079-3.840201 1.79783-5.838765 3.45757-.803191-.85337-1.960479 1.71872-2.262399-.0308-2.190175-1.08111-.850573 1.90045-2.668928 1.8891-1.022267.76333-3.818682 1.23273-2.771314 2.83889 2.075487-1.60278 5.309423 2.09398 2.200849 2.84545-.700937.61155-1.905325 1.01469-.336632 1.58975.513515 1.73975.564048-.93694 1.850451-.12563 1.388878.75492 4.371474.5961 3.357396-1.66968 1.329657 2.43368-2.249953 2.60594-3.6567 2.34578-.66247.93309 1.289114.73719.900531 1.79367 1.332276 1.28136 2.673771.79498 3.74679-.3988 1.591931.55423 3.100328-.79826 3.090318-2.30781 1.16364-.51894 4.623663-.70724 4.589792-.003-.552991.73428.643674-.36719.493749.51919-.234108-.91794 1.026682 2.02888 2.584316.9883 1.272404-.64747-1.414536 1.79883-.880846 2.1262-.131888.99579-.772854 1.13912.598133 1.31936 1.685975 1.06194 2.545337-1.05265 4.281959-.30752 1.09566-.31002 1.36344-2.1286 2.98508-1.23346 1.80784.89386 1.54362 3.96182 3.83133 4.03535.93961 1.676 2.69451 2.51971 4.59016 2.45328 1.96787.0479 4.27285-.23957 4.68972-2.4114 1.20547-1.93678 3.64463-1.70104 5.31367-2.20484-.61377.30887-1.36981 1.28292-.46395.67468 1.34508-.47537 2.18882-.28276 3.02547-2.0477.932-1.61746-.14706-4.13278.33584-6.17449-.83734-2.22118 3.26922-2.08389 3.45606-3.77183-.70972-1.1153-1.1014-3.88603.65134-2.44752 1.60621-.60789 1.94153-4.22177.0892-4.41225-1.06726-.60953 1.35064-2.33446-.69111-2.50041-.38251-.0159.5559-2.00938-.85427-.94266-.0459 1.26315-3.3632.99783-1.70858-.25751-.61983.14523-1.42573-.97737-.33986-.72839-.15717-1.66481-2.75808 1.01864-2.16341-1.511-.85937-.31151-2.34121-1.61199-3.14279.003-1.80243 1.25181-4.01686-.28528-4.8076-1.98082-2.18256-1.91023-4.39802 1.4641-6.22611 1.17332-.59719 1.69505-2.01134.0292-2.55893.6834-.46656-1.61516-1.88145-2.19654-.93993-3.79545-1.28146.85135-2.00046.12735-1.79897-1.34732-.0717-.70352-.8483-.70667-1.33744-.49653zm-9.819754 11.37516v.0562zm-4.01035 1.16188c-.338139.007.120577.24407 0 0zm-5.65948 3.16705.0187.0187zm.50599.33733.106477.0346zm-5.8094 4.47885-.03844.067zm16.45371 3.39187c-.01688.48953-.325641.23712 0 0zm-13.21169 1.53652c.0042.12464.119723-.0625 0 0zm42.914584 3.12982.0187.11244zm-2.17383 1.25558c-.32787.36065-.65142-.009 0 0z" stroke-linecap="round" stroke-linejoin="round" stroke-miterlimit="10"/><path d="m118.99292 178.72257c-2.45725.20996-1.24242 3.49793-2.73299 4.83362 1.66933.95212 2.20495 3.24277-.35192 3.05424-1.23753-.60717-2.22662-.0422-1.32121 1.31819.64236 1.06643.35262 1.64421-.64999.90608-.27012 1.03428-1.50882-1.71116-2.53839-.39872-1.79478.22282-3.12271 2.03926-4.95778 1.77713-1.18194-.19142-3.93882-2.54758-3.6477-.29237 2.17738.69481-1.07714-.042-1.66814 1.0381-.84472.64593-2.089851-1.22319-2.175396.60917-1.950883.32438-2.48172 2.62194-4.156792 3.33004-.75841 1.41016-.202911 3.45887-2.228646 4.15659-1.448791 1.62955-3.789365 1.79924-4.859922 3.97142-1.001778.83648-1.013462 2.6209.31183 1.60588 1.254946-.30893 2.508962-1.03716 3.157011.44052.755263-.98261.628118-2.92657 2.544949-3.13653 1.484925-1.0547 4.339489-.98104 4.501933 1.29522-1.476463 1.86617 2.454833 3.26033.70267 5.18493-1.513783 1.34478-.138109 4.86482 1.950583 3.47437 1.23399-.69329 3.20138-.20994 2.54144 1.58717.33983 1.24613 2.5293-1.27878 1.63127.63265-.93061.897 1.20027 2.93535 1.2754 2.8262 1.1442.37127 1.88554.65898 2.44257-.68263 1.13294.17768 2.1534.14023 2.62086-.97259 1.63719-.48283 2.89439-1.18432 3.78332.70011 1.37646 2.06288 3.95636 2.33989 5.4726.5554 1.18141-.41298 1.56166.78658 2.23526 1.12744-.2497 1.24811.94742 1.19108 1.39058.45677.72668.40608 2.00984.98312 2.12552-.35078.85127.82934 1.4443-1.24534 2.17348-1.04826 1.07912-.30051 1.17797-.16892.70851-1.19949 1.60388-.79548.88633-2.06258 1.67705-3.35042.55769-1.08521-1.83482-2.01292-.21041-1.95979 1.24512-.91758.58229-2.25349-.58314-2.65181.0468-2.00056-2.20637-3.26698-1.22481-5.27417-2.33896.4911-1.10997-1.90043.14323-2.51107.24272-2.07919-1.52356 1.17696-2.48524-.005-1.81791 1.15479-1.99866-2.80753-2.54464-4.05261-.58231-2.44964-.67858-5.42918 1.09598-7.41227 1.38278-.34559 3.71759-2.24069 1.52817-3.04393-1.7167 1.69584-2.42464-1.64659-4.51832-1.29079-.85831.36582-.6599 1.67971-1.56153.42445-.61821-.89277-1.69427-1.16146-2.15799-.63621-2.07943-1.69726 2.40226-3.43476.56071-5.03624h.00003zm-1.85525 7.55335c.0811-.15042-.12208-.006 0 0zm.48589-6.36073c.1242-.0104-.0691.14912 0 0zm.0662 0 .022.0442zm-.13251.0442c.12706.11617-.16205.19214 0 0zm.17668 0c.13187-.002-.0805.16024 0 0zm-1.17055 3.15828c.1242-.0104-.0691.14912 0 0zm.13252.37546.0221.0442zm-23.874844 2.69448c-1.14132.59614-3.107877.39326-2.579401 2.26867.286837 1.81491-.723658 1.15515-1.852523.92167-1.048043.88554 1.570995 1.57864 1.637743 2.23463 1.58941.38099 1.595113 2.15887 3.004226 2.93488 1.876142 1.42409 3.254994-1.68958 4.826549-2.57476 1.31267-.4521 2.56615-3.36366.154686-2.34098-2.417916.38141-1.706134-3.98896-4.511856-3.21805-.28728-.10639-.446526-.11348-.679424-.22606zm3.6 2.09816c-.1093.13465.119346.008 0 0zm-7.06748.83926-.0442.0442zm-.22082.1104c-.54645-.0155.228073.0818 0 0zm13.892014.3092c.16802-.0711.0494.29612 0 0zm-12.257664 2.40736c-.142035.17718.09558.0699 0 0zm34.586494 7.53128c-.10243.13136.12765.025 0 0zm-33.172994 4.90307c-.115882.19584.24184.0338 0 0zm-.13252.1546c-.112364.17265.143979.19684 0 0zm-3.99754.39754-.0221.0442z" stroke-linecap="round" stroke-linejoin="round" stroke-miterlimit="10"/><path d="m63.16898 130.60364c-.580028.009-1.113159.13307-1.524817.41593-1.934404.66824-3.542547 1.91464-5.803914 1.78584-2.011726-1.57208-1.341494.56656-2.174603 1.9566-.24895 2.38772-2.329575 1.55877-3.978433 1.55672-.06185-.0846-.108241-.1706-.139684-.26118l-.214764.17588c-.166485-.0329-.337778.0748-.46165.17607-.28727.31509-.522479-.19517-.832252.12248-.602195-.21836-.791699.4695-1.073813.83697-.07989.30179-.536048.53842-.43485.83713.621782.15354-.195174.46011.139508.73563-.04502.37975-.33795.54847-.569033.77844.02043.42736-.202394.86785-.02148 1.2795-.04038.45516-.150679 1.01387-.558384 1.30611.007.43111-.262181.72813-.633465.90094-.224728.37925-.231598.99187-.37592 1.46085-.179543.32345.144491 1.02939-.451.95434-.34826-.2269-.74016-.10715-1.116769-.11738-.490689-.30418-.726586.33165-1.100615.5118-.515086.10492-.855787.88866-1.42276.5065-.476945-.2506-.752355-.9057-1.342352-.95961-.548247.0287-.484331.76838-.692567 1.09815-.382279.19328-.303416.59113-.563882.84242.376608.35144.904926.59164 1.041685 1.13551.437944-.0615.915405-.0778 1.326204.13869.40839.0126.672636.69401 1.04701.28253.250499-.43913.537252.30621.241567.43706-.650817.46728-1.500592.70851-1.857782 1.49275-.05068.37891-.693256.28132-.649615.61314-.576426.0863-1.163328-.0208-1.744906.0479-.284517-.11719-.429694-.5164-.724867-.0959-.299122.26153-.789126.49457-.832249.90623.140715.44219-.249121.72026-.638961.65049-.249811.4422-.75098.56008-1.229474.62901-.177821.19005.606489.51299.107383.70372.285033.27313.609411.55188.832249.89565.456844.52255.798057 1.27199 1.524813 1.46084.517149.003.550137.50907.692571.87962.34671.49269.736547 1.08262 1.390626 1.17816.572646.54728.272321 1.47432.612162 2.14324.875201.28661 1.873073.20711 2.786417.40517.225072.21428.243971.79892.644287.41047.512852.22571.282626.88508.681915 1.17287.50306-.12214.525223.57236.98791.51181.376262-.17095.676072.0595 1.004057.20795.477633-.0791.639134-.60392 1.003887-.86903.140022-.25489.627621-.62405.757168-.18135.0756.35246-.669201.50275-.112878.67182.310804.17776.842897-.33335.875198.22929.25428.19277.452549.57168.794623.23986.500312.0581.793763-.44202.864376-.87433.370764-.27056.01442-.66056.0646-.99169.375408-.12965.511822-.47767.547559-.84754.323518.0392.537763-.18271.869873-.14399.465951-.0512.229196-.55257.25222-.82638.208064-.38146-.138136-.64026-.348948-.87432.257199-.51573-.805103-.38642-.477803-.82093.278846-.20489.525396-.41729.536907-.77845.467838-.0826.831733-.39954 1.105942-.76769.331423-.60632.858191-1.0724 1.165216-1.68997.510446-.28763.848399.52102 1.363657.42651.295515.19004.440693.61552.773146.81035.319738.18014.08608.8187.520756.75712.442066.26135.471449.89786.62814 1.34875-.304619.44681.234002.77538.413545 1.12494-.02576.71856.366644 1.41376.998562 1.7698.256854.0742.502199.72027.708718.31459.191222-.59983.7472-.0118 1.100612.0748.46475.30401.653566.99067.547731 1.52466-.249468.48586-.59429 1.04218-.300667 1.60482.387949.30947.418701 1.15736 1.063163 1.00211.19672-.30197.637932-.25249.939456-.41047.36355.12966.656831-.022.869874-.31987.165971-.33131.509761-.2455.665765.0479.159786.4787.595324-.0858.789295.18134.270431-.2327.86421-.22946.735521-.7143.08316-.5176.664562.064.842901-.33062.198441-.34.586387-.29326.71937.0747l.268536.17589c.05842-.0737.165799-.14244.34362-.20267.475745.86681 3.188456.66602 2.007947 1.57805 1.552819.5698 3.81728-1.38118 4.064511-3.08138-.122154-1.66761.265621-3.20693 2.351568-3.00154 1.734767 1.02276 2.434893-.18953 3.393252-1.76997-.0262-.33539.01289-.60999.284516-.83166.798745.0305 1.06677-1.50709.998732-2.40972 1.086872-1.44277-.08367-2.21576-.193286-3.71056-.700299-1.27863-.739126-4.53983-2.824215-3.76922-1.792667-.33796-3.538258.62081-4.515342 2.08456-1.106801-2.4563 2.363935-3.14382 3.629488-4.41428 1.327408-1.46323-2.264455-4.42399-1.288577-2.13778 1.196659 1.42109.916951.95809-.429526.39443-.431586-1.60638-1.264008-3.46097-2.582478-4.74472-1.637521.0839.735351-3.5077-1.79318-2.38311.553399-2.06272.02026-6.25367-3.141035-4.60091-.965228-.54028-2.471657-1.06523-3.747524-1.04492zm-19.027971 28.70342c.572639-.0101.515431.93079 1.213323 1.2795.156519 1.35302 1.555394 2.64003-.0053 1.99396.461141-.73307-1.869467-2.33466-1.868437-3.00681.288815-.18596.49997-.26375.660441-.26665z" stroke-width=".691506"/></g><path d="m191.28125 579.1875c-2.4178.19229 1.98789 2.25041 2.78125 2.75-2.74544.42532 1.49705 3.86055 3.71875 5.625-3.61107 1.18812-3.56044-.86021-5-2.46875-2.71663 3.43371-7.52252.75678-7.96875 3.8125-4.2705 4.86804 3.48341 8.33954 1.9375 13.8125 3.11518 6.17557-4.78683 6.5045-7.5 11.46875-3.94899-.01875 8.47771-8.02563.375-6.03125.58934-2.59486 8.83109-6.329 2.5625-11.03125-4.4151-.97399.32571-11.10259-4.59375-8.5625-1.50715 1.71513-9.18372 3.89675-4.34375 6.5 1.77796.87877 2.1063 2.24402 1.75-2.34375 1.76357 1.77877 3.25733 6.01239 1.375 10.5 1.34317-4.28386-3.99107-6.78868-6.5-8.65625 2.34047-5.02249.72316-3.87021-2.59375-1.65625 1.60305 2.10195 3.45607 7.8375-1.40625 7.40625 3.8024-3.71639-.66366-.54987.15625-3.5-2.7882-.16137-1.69396-4.1148-5.03125-4.0625-.60821 4.57842-4.63915 5.46516-7.5625 8.25.64698-2.38766 1.1075-3.78551-2.4375-1.59375-5.44371-3.46329-5.30189 4.42337-5.96875 5.40625 2.42743 3.28122-4.51901 2.01912-3.875 6.1875-4.7714.00046.72299 4.73373.84375 5.59375-6.58115-.40852-1.04438 7.13221 1.59375 3.90625 4.70231 1.92873-1.1246.90415-1.625 3.5 6.41668 2.27713-1.54307 1.20493-4.375 1.03125-6.29193.97398-1.69793 2.93754 1.65625 5.65625 5.56049 3.68682-9.23254-2.67168-2.875.5 6.09963 4.31788-6.85735-2.6363-9.25 1.3125-2.08009 2.95109-6.81689 4.30498-5.1875 7 1.84157 4.2424 9.54994 6.93039 14.9375 4.09375-1.43559 4.11061 7.97682-2.49878 3.71875 2.59375-5.36519 4.683 1.41075 1.06476 3.34375-1.78125 4.5582-5.70092.92069 4.41589 5.625-.03125 3.52162-4.00804 8.51685.33092 4.34375.8125-1.29646.81563-5.65137 7.11123-6.71875 11.0625-3.68562 2.05456-9.75762.28144-9.65625 2.9375-1.693 4.18612-5.45467 4.79312-9.1875 6.5625-2.46022 6.18889 4.54169.50646 7.875 3.78125-1.07086 1.19605-5.84531-.785-1.0625 1.96875 7.62617 3.36362-9.01593.56286-3.125 3.90625 5.17885 3.67839 1.43269 5.29206-2 1.71875-2.24008-6.15088-8.50755-1.17353-12.90625-2.9375-3.99669-4.28726-10.2484-2.1366-10.59375 3.625-1.00179 3.96753-1.91603 4.75325-5.0625 1.4375-1.604526-1.33715.92236-5.6625-1.4375-5.8125-.886978-.08239-4.71871-6.57856-7.25-2.125-6.396302-2.33337-13.85755.04831-21.15625-3.46875-5.529678 1.17189-2.02703 4.75082.0625 4.625 2.934777 4.07608-.25737.26991-3.09375 1.3125-.548113 3.23283-2.64787 7.28565-5.6875 3.71875 1.248748.47759 6.58737-2.56103.96875-3.21875-2.140218-4.63711-3.19148-2.1929-6.25.34375-.325969.83879.02182 2.37302-1.375 2.09375 3.91271 1.49505-.2453 5.49479-.9375 9.84375 1.08476 4.88086 3.67703.74505 2.59375-.46875.105351-2.31414.19767-4.95591 3.125-4.96875-2.74049-5.60819 5.27968-.75754 2.8125.8125.326971.45689-.18404 2.61909 1.5 3.9375.762773.92321-5.75284 3.15265-.8125 5.375 2.282343-.84624 5.21782-6.56526 4.34375-3.34375.268828 2.76462-4.61876 5.31418-.875 8.25 2.238597 2.38616 1.48451 4.15198 3.78125 4.28125.895938 5.50501-.189 1.39735-2.96875 0-3.603133-1.96727-6.25069 9.9021-.84375 7.34375 4.529889-2.46608 11.7198-3.65064 15.03125-1.75.595802 2.4735-1.61074 3.39164-2.09375 5.21875 4.449392 1.79259 1.74777 4.96709-3.6875 3.71875-5.610179.13125-13.67743.78628-11.25 8.46875 3.431199 5.72265-.68172 7.26496-6.4375 6.15625 1.499199 2.83321 1.66389 3.88634-2.90625 2.9375 1.295959 1.58139-8.75352 1.64195-2.59375 2.21875.512818 2.91461 4.90108 5.51927 4.1875 7.9375-2.641599-1.55723-8.02591 3.20871-3.21875 2.90625 3.17976-1.93516 4.79716 2.04475 8.125 3.1875 2.17053-.78847 5.91687-7.58003 4.6875-2 3.352692-2.18336 2.72668-1.47185 4.125-.1875.118763 2.69258-6.46054 2.09889-5.5 5.96875 1.707891.38637 4.93613 2.28125 7.65625 1.90625 1.008241-2.39702 7.46945-9.98232 5.125-3.09375-.715563 3.71838 4.20175-4.85469 3.4375 1.21875-2.136237.27879-2.96922 6.98899-1.03125 7.4375 2.045798-2.32101 2.0525-5.0738 2.375-.09375 8.634896 1.47528 18.92091-.4201 27.40625-2.5625 7.81598-.59211-3.44935 3.68833 1.8125 4.96875 5.86212-1.90362-.50732 1.55597 1.65625 5.09375-.4835 1.03374-3.63671-3.99192-7.09375-1.25 6.40276 1.05344 2.04815 1.49423-1.875.59375 1.85697 1.61097-3.14167 3.75834-6.59375.375-3.001856.9977-4.28513 6.36106-6.5625 9.25.073053 2.91557-7.43829 9.00444-2.8125 8.4375 8.14295-1.18617-.84409 4.21353-.65625 7.25-2.11041 2.67874-1.63601 10.23912-6.875 8.1875-4.539819 5.3131-9.98619 11.83408-17.46875 14.96875 3.246348.69126 11.02865-.10991 11.9375-3.53125 4.303288-.24619 6.64641-2.2428 6.875-5 1.289988 5.65305 9.48044 5.11214 14.0625 2.59375-2.943727 1.75408-2.99476 5.83383.75 2.1875 5.48098-.2936 10.12228-5.57884 11.09375-10.53125 2.78918-5.79907 6.63692 1.53144 3.84375 4.46875 2.94373-1.95589 14.57564.51515 7.75 2.15625-4.70976-3.82643-9.214 3.76561-12.4375 2.875-4.3992.03156-12.13691 5.86461-17.15625 3.53125-3.817811 2.28993-9.58-1.19749-13.125 1.6875-3.898797 2.87663 4.09582 7.80064-.96875 6.03125-3.800914 2.41923-8.15584 4.75905-12.84375 5.15625.391073 2.99999 7.8137 1.7675 5.1875 7.59375-4.828527 4.06127-.67852 4.01974 4.03125 4.375 1.067382 4.67067-4.43274-.73631-5.4375 2.78125-6.74265 2.83616-7.15943-5.16612-9-6 1.382909 1.93123-1.50867 6.50394-5.5625 6.03125 1.59062-5.01757-4.39549-5.02231-7.375-.71875-4.898089-.15889-1.54985 6.22581-5.03125 5.40625-1.86591-4.71211-5.37168 4.73983-1.9375 6.5625 5.118229-.69225 3.00135-3.26429 8.09375-1.1875-1.517091-2.04964.13153-1.8694 2.59375-1 2.53377 3.04437 10.9538-4.55372 13.5.65625-.84525-2.12216 3.07212-4.84601 6.03125-1.8125 6.853461-.96266-1.82756 3.77183-3.125.59375-.879537 2.1079-2.12719 8.45472-3.125 3.375-.730459 4.49846-8.04732 3.83785-11.84375 6.46875-1.715369.83291-5.46811 3.22156-4.4375 4.5 6.79581 5.1345-6.52946 3.44085-4.75 7.53125 1.949401.80128 2.58574 2.81138 2.34375 5.6875 3.037641-2.03882 8.11611-10.01075 7.8125-.90625-5.251899 2.38668 3.51984 1.27784 2.40625 4.5625 3.775572-2.16218 9.85707-5.94012 12.96875-5.6875 2.248043-.09766 8.03552-5.00017 14-5.21875-.907372 2.68615-8.80115 2.45779-10.4375 6.84375 1.315339 2.8653-2.42346.56533-3.90625 3.4375-.596299-.91329-3.09422-.51511-5.625 1.875 3.313922 1.3411-.70726 4.96742-4.65625 4.0625-.15256 1.20688 2.70215 4.65673-2.46875 4.46875-2.825469 3.31178.78866.97385 3.875 1.28125 5.49192-.03555 7.5915-5.68486 14.15625-4.90625 5.008409-.94736 11.66524-3.004 11.34375-7.5.383611 5.02196 5.95751.75894 4.46875 4.5-3.572318 4.26164-11.85329 5.11634-16.25 9.28125-3.915702 3.27085-2.29246 3.8901 1.78125 1.3125 1.98668-.61631 11.66817-5.88302 8.3125-3.09375-2.571051 5.55435-12.90301 6.72374-11.9375 11.59375 1.18416.68387 4.96271.59471 5.5625-1.84375 2.518361-5.50553 3.77686 1.17365 6.25-2 1.537463-1.74818 6.98178-.85448 6.90625-4.1875 3.532068 1.75554-.09767 5.24673 3.5 7.0625 4.070743-2.05456 4.620973-2.74784 7.4375-1.21875.74189-4.08497 4.0781-1.58689 5.34375-5.25-2.46521-3.25657 4.39856.75753 5.9375-1.5625 2.59739 4.16688 3.84852 2.46641 6.46875-.59375 2.82149-2.95014 5.27353 1.25064 8.5.34375-1.59709-4.58135 4.82665-7.91508 7.1875-3.21875.07553-.19542 1.48058-6.14508.96875-7.21875 2.75839 3.50032 4.36501-.30774 8.3125-1 3.11815-2.19869 5.0355-6.72274 2.09375-10.09375.67083-3.83236-5.89767.40521-3.75-3.25 2.77428 2.78136 11.71673-1.78087 10.34375 1.9375-8.38694 5.18875-.1695 6.51395 3.375 4 6.26164 1.06082 3.23364-4.07436 8.25-4.90625 6.25171.88863.06935-3.15788 2.90625-3.09375.34734-7.30503 7.72492.66687 8.71875-4.90625 4.93983-.298 6.4628-3.11797 8.6875-6.28125-3.00484.44311-4.87352-5.42183-.6875-2.375 4.66008-5.81588 13.85499-3.07947 19.53125-5.15625 3.12311-.43519 1.44166-2.19474 4.125-1.6875-3.21703 3.49584 3.45261 3.77628 5 .5 1.16875-2.04177.21226-5.56304-.875-9.5 1.00129 1.14029 5.34972 6.12372 4.5 9.71875-4.52541 5.33678 2.40297-.66992 3.96875-1.9375.21515-3.57578-.84828-3.33507 3.09375-6.28125-1.27906 3.71-2.42472 4.78337 2.65625 3.59375 4.62131 1.93073 8.18943 4.60505 12.125.5625-1.51212 2.99653 4.50321-.95574 3.53125 1.5 1.81176 2.98317 6.26284-6.00445 1-6.75-.58833-1.10821-.39356-2.22106 0-3.3125-.80747 1.24047-4.02789 1.0919-3.125-2.8125 3.09082-1.44913 4.46168 1.62297 3.96875-4 3.69009-6.46524 10.48801-12.38282 6.90625-20.40625 3.16485-5.06687 3.35696-10.35779 5.6875-15.625 1.81127-2.82877 7.47771-9.29329 3.5625-11.65625-.39554-6.41146.54781-13.28741-3.1875-18.84375 1.62988-6.16769-3.4638-6.37654-5.96875-11.0625 1.31533-5.01159 6.87768-.77043 8.4375-2.84375-.13813-.72633-1.0833-.71694-1.65625-.84375-5.38308-2.09703-.41592-8.7295.28125-13.09375-2.60581-4.52366-8.94099-7.22377-8.65625-14.25 1.60453-5.14977-.35823-6.46206.25-11.09375-4.34951-.57037-8.70598-5.27211-6.125-10.75.69569-6.89991 7.87924 3.02134 12.1875-1.1875 1.14093-3.02365-7.55103-5.9357-6.1875-7.65625.16896-.21312.4857-.41958 1-.59375 1.37596 2.50702 9.22681 1.9247 5.8125 4.5625 4.49112 1.64799 11.03495-3.98887 11.75-8.90625-.3533-4.82311.77945-9.28157 6.8125-8.6875 5.01735 2.95806 7.0407-.554 9.8125-5.125 1.03606-5.92839-3.3062-7.47709-7.6875-3.4375-.2569-.83438 5.97564-7.88934 2.375-10.125-.51234-3.17118-1.47034-3.91796-2.8125-6.21875.04374-6.06457 7.68976 1.49938 7.8125 4.5625.08048 4.78563-2.52634 8.55876 1.125 12.8125 2.31016.08832 3.10303-4.3581 2.90625-6.96875 3.14348-4.17282-.24547-6.39545-.5625-10.71875-2.02542-3.69812-2.15693-13.13501-8.1875-10.90625-5.18483-.97746-10.23654 1.79774-13.0625 6.03125-3.20113-7.1042 6.83972-9.10679 10.5-12.78125 3.83917-4.232-6.54122-12.79976-3.71875-6.1875 3.46101 4.11017 2.64433 2.78649-1.25 1.15625-1.24824-4.64601-3.65542-10.00581-7.46875-13.71875-4.73608.24273 2.12561-10.15884-5.1875-6.90625 1.60055-5.96584.08075-18.0927-9.0625-13.3125-2.79167-1.56263-7.15364-3.05872-10.84375-3-1.67758.02664-3.21564.36942-4.40625 1.1875-5.59476 1.93271-10.24084 5.52878-16.78125 5.15625-5.81839-4.54679-3.90295 1.66717-6.3125 5.6875-.72002 6.90585-6.73111 4.50592-11.5 4.5-.17889-.24476-.31531-.51925-.40625-.78125-1.35707-3.93302 6.79686-9.65036 11.125-11.8125 7.84282-1.74868 1.32006-6.59589-2.375-6.15625-5.4934-2.96542-8.02672-9.44523-15.59375-9.21875-.22495-.0049-.43256-.01282-.59375 0zm45.625 48.71875c1.55038 6.66454-3.53953 1.72793 0 0zm-.875 5.9375c.62264-.02075 1.14289.66926 1.125 2.46875 3.65084 3.26642 8.59377-3.60933 11.375.46875-2.04531 3.64632-6.25929 8.11829-1.59375 10.125-4.63177 2.37235-3.42394 6.27305-5.46875 8.46875-3.11965-.21614-5.09142-3.86921-9.1875-1.28125-6.62389-4.77573 6.29656-8.07162 1.875-14.28125-1.47882-2.47103.50501-5.92286 1.875-5.96875zm-66.25 17.78125c1.4654-.06412 2.91076.25907 4 1.125-.01738 2.3812.25941 4.82043 1.9375 7.53125 3.40338-.0439 2.92926 10.04005.875 2.625-3.20313-3.66509-9.98509-7.00344-13.625-6.53125.19331-2.53962 3.5895-4.60839 6.8125-4.75zm13.3125 22c1.65622-.02912 1.48153 2.71021 3.5 3.71875.45268 3.91325 4.51398 7.61857 0 5.75 1.33373-2.12022-5.40923-6.74345-5.40625-8.6875.83532-.53781 1.44213-.77286 1.90625-.78125zm-43.71875.9375c-.65692 1.07811 5.44489-1.13977 5.46875.9375-1.8525 2.19029-8.00253 1.44865-5.46875-.9375zm-67.65625 4.4375c.748357-.00197 1.61903.29292 2.1875.625.733453 5.168-3.31483 1.54571-2.84375-.5.210687-.06659.4068-.12352.65625-.125zm85.46875 4.125c.61569-.00149 1.53427.11958 2.90625.40625.61669 3.11344-2.33093 12.25978-2.84375 4.75.56052-2.69353-2.73192-5.14835-.0625-5.15625zm-59.9375 5.28125c1.030098-.04984 2.599583.84394 3.5 2.65625-3.773089 3.44401 5.07573 5.31975-.40625 6.875-3.766615-.00443-4.69162-6.73913-2.65625-5.625-2.073128-2.56675-1.60526-3.84999-.4375-3.90625zm51.34375 5.90625c.52524.00594 1.22907.5084 2.125 1.8125l-.25.125-.0625.375c-3.16684 3.71886-3.69183-2.33323-1.8125-2.3125zm-45.9375 3.28125c.48102-.08143 1.01827.55266 1.34375 2.625-3.4953 2.45871-2.57312-2.42072-1.34375-2.625zm36.34375 1.125c.37816-.01729.90447.11825 1.625.53125.60077-.33401.79854.40116.28125.65625-1.45497 2.76064-1.32383 5.41311-4.15625 2.40625 1.59014-.1663.61217-3.51974 2.25-3.59375zm56.90625 12.40625c.4363.09028 1.68065.28618 1.34375 1.03125-1.5787 4.60749-7.75595 1.93713-1.34375-1.03125zm-98.125 6.34375c.52077.02514 1.63118 3.23831 2.0625 3.28125.15852-.68438 1.33713-1.05888 1.15625 0-1.634356 5.56325-2.66033 2.60325-3.4375-.75-.126222-1.89917-.01927-2.5426.21875-2.53125zm-1.6875 5.625c.183364-.00145.35975.02714.5625.09375.75282 3.7095.14517 7.30924-1.15625 9.6875-3.007331 2.90772-7.54419-3.16513-6.6875-2.5 3.755191-.0212 4.52933-7.25608 7.28125-7.28125zm95.9375.96875c.32697-.01631.71952.10461 1.125.375 2.82199 3.30292 3.97147 6.04782-.34375 2.0625-2.97007 1.17235-2.5468-2.34967-.78125-2.4375zm-32.1875.3125c.28821.01335.65001.13552 1.09375.4375-1.19707 3.186 1.40877 8.49163 3.0625 9.53125 2.13823-1.30655 4.8833-1.60804 4.125.375-5.1227 1.83007-1.32721 6.60674-3.09375 6.90625-3.77655 1.28488-3.07171-2.0755-3.75-2.75.77569-4.66722-1.00637-4.9071-3-7.40625.93321-1.02287-.45498-7.18898 1.5625-7.09375zm31.53125 6.34375c5.76075 6.98874-5.00692.24079 0 0zm-93.78125 5.3125c2.44085-.02761 3.59269 1.1752 3.625 4.375-1.645789 4.25322 7.50291 4.10116 8.09375 5.3125-5.18034 2.3225 3.9973 8.70855-3.40625 8.65625-3.44065-3.80274 1.91833-8.89737-4.59375-9.09375-4.235213-.02469-6.9046-5.79885-13.125-5.84375 1.290503-3.10163 5.76179 1.25226 3.59375-2.15625 2.416497-.74995 4.34809-1.23322 5.8125-1.25zm94.15625 3.34375c.15621-.01152.29402-.00421.46875 0 .18038.00444.36174.00856.5625.03125-2.01461 7.87401-5.87383.32597-1.03125-.03125zm-40.1875 33.59375c.08099-.0074.14322-.00246.21875 0 .52723.01484.93971.28126 1.09375 1.125-6.00671 1.50689-6.11773 7.32999-4.90625 11.1875-2.71415 1.25375-.53223 3.55213-5.5625 2.25-.63258 2.42216-4.69723 9.92954-3.96875 3.5625 4.47373-3.97498-6.10087-2.88951.6875-5.4375 4.84792.87579 7.18169-2.48804 4.3125-6.5 4.04936-.11252 2.03872-3.55381 4.25-5.75 1.25968.55313 2.79918-.33734 3.875-.4375zm90.3125 61.78125c-.05864.1342-.13433.29195-.1875.4375.08149-.1337.16862-.27714.1875-.4375zm-158.875 20.84375c.045721-.01037.07233-.00345.125 0 .469582.02613 1.24806.49245 2.34375 1.6875.429342.46528 2.01133.44326 1.5 1.34375-3.407838 2.25341-5.37502-2.81365-3.96875-3.03125z" fill="#b0b0b0" stroke="#727271" stroke-width="2"/></svg>